<svg xmlns="http://www.w3.org/2000/svg" xmlns:xlink="http://www.w3.org/1999/xlink" width="250" zoomAndPan="magnify" viewBox="0 0 187.5 56.249996" height="75" preserveAspectRatio="xMidYMid meet" version="1.0"><defs><g/></defs><g fill="#ffffff" fill-opacity="1"><g transform="translate(62.476857, 22.764696)"><g><path d="M 16.921875 0 L 13.6875 0 L 12.359375 -3.234375 L 4.671875 -3.234375 L 3.34375 0 L 0.109375 0 L 7.0625 -16.734375 L 9.96875 -16.734375 Z M 8.40625 -12.375 L 5.71875 -5.78125 L 11.3125 -5.78125 L 8.609375 -12.375 L 8.546875 -12.78125 L 8.5 -12.78125 Z M 8.40625 -12.375 "/></g></g></g><g fill="#ffffff" fill-opacity="1"><g transform="translate(79.519397, 22.764696)"><g><path d="M 8.84375 0.375 C 7.832031 0.375 6.894531 0.210938 6.03125 -0.109375 C 5.164062 -0.429688 4.40625 -0.890625 3.75 -1.484375 C 3.101562 -2.078125 2.597656 -2.796875 2.234375 -3.640625 C 1.878906 -4.484375 1.703125 -5.425781 1.703125 -6.46875 L 1.703125 -16.71875 L 4.75 -16.71875 L 4.75 -6.6875 C 4.75 -5.894531 4.90625 -5.175781 5.21875 -4.53125 C 5.53125 -3.894531 5.988281 -3.382812 6.59375 -3 C 7.207031 -2.625 7.957031 -2.4375 8.84375 -2.4375 C 9.695312 -2.4375 10.425781 -2.625 11.03125 -3 C 11.644531 -3.375 12.113281 -3.882812 12.4375 -4.53125 C 12.757812 -5.175781 12.921875 -5.890625 12.921875 -6.671875 L 12.921875 -16.71875 L 15.984375 -16.71875 L 15.984375 -6.46875 C 15.984375 -5.46875 15.8125 -4.550781 15.46875 -3.71875 C 15.125 -2.882812 14.632812 -2.160156 14 -1.546875 C 13.363281 -0.941406 12.609375 -0.46875 11.734375 -0.125 C 10.859375 0.207031 9.894531 0.375 8.84375 0.375 Z M 8.84375 0.375 "/></g></g></g><g fill="#ffffff" fill-opacity="1"><g transform="translate(97.176303, 22.764696)"><g><path d="M 9.640625 0.359375 C 8.660156 0.359375 7.726562 0.210938 6.84375 -0.078125 C 5.96875 -0.378906 5.160156 -0.796875 4.421875 -1.328125 C 3.691406 -1.859375 3.054688 -2.484375 2.515625 -3.203125 C 1.972656 -3.929688 1.554688 -4.734375 1.265625 -5.609375 C 0.972656 -6.484375 0.828125 -7.40625 0.828125 -8.375 C 0.828125 -9.34375 0.972656 -10.265625 1.265625 -11.140625 C 1.554688 -12.023438 1.972656 -12.828125 2.515625 -13.546875 C 3.066406 -14.273438 3.710938 -14.90625 4.453125 -15.4375 C 5.191406 -15.96875 6 -16.378906 6.875 -16.671875 C 7.757812 -16.960938 8.695312 -17.109375 9.6875 -17.109375 C 10.394531 -17.109375 11.101562 -17.023438 11.8125 -16.859375 C 12.519531 -16.691406 13.195312 -16.441406 13.84375 -16.109375 C 14.5 -15.785156 15.097656 -15.382812 15.640625 -14.90625 C 16.179688 -14.425781 16.640625 -13.875 17.015625 -13.25 C 17.398438 -12.632812 17.671875 -11.953125 17.828125 -11.203125 L 14.71875 -11.203125 C 14.289062 -12.171875 13.628906 -12.929688 12.734375 -13.484375 C 11.835938 -14.035156 10.796875 -14.3125 9.609375 -14.3125 C 8.828125 -14.3125 8.085938 -14.164062 7.390625 -13.875 C 6.691406 -13.59375 6.078125 -13.191406 5.546875 -12.671875 C 5.023438 -12.148438 4.613281 -11.523438 4.3125 -10.796875 C 4.019531 -10.066406 3.875 -9.257812 3.875 -8.375 C 3.875 -7.457031 4.019531 -6.632812 4.3125 -5.90625 C 4.613281 -5.1875 5.023438 -4.566406 5.546875 -4.046875 C 6.078125 -3.535156 6.691406 -3.140625 7.390625 -2.859375 C 8.085938 -2.585938 8.828125 -2.453125 9.609375 -2.453125 C 10.609375 -2.453125 11.472656 -2.625 12.203125 -2.96875 C 12.929688 -3.3125 13.519531 -3.78125 13.96875 -4.375 C 14.425781 -4.96875 14.734375 -5.65625 14.890625 -6.4375 L 9.484375 -6.4375 L 9.484375 -9 L 18.21875 -9 C 18.226562 -7.625 18.039062 -6.363281 17.65625 -5.21875 C 17.28125 -4.082031 16.722656 -3.097656 15.984375 -2.265625 C 15.253906 -1.429688 14.351562 -0.785156 13.28125 -0.328125 C 12.21875 0.128906 11.003906 0.359375 9.640625 0.359375 Z M 9.640625 0.359375 "/></g></g></g><g fill="#ffffff" fill-opacity="1"><g transform="translate(116.209391, 22.764696)"><g><path d="M 8.84375 0.375 C 7.832031 0.375 6.894531 0.210938 6.03125 -0.109375 C 5.164062 -0.429688 4.40625 -0.890625 3.75 -1.484375 C 3.101562 -2.078125 2.597656 -2.796875 2.234375 -3.640625 C 1.878906 -4.484375 1.703125 -5.425781 1.703125 -6.46875 L 1.703125 -16.71875 L 4.75 -16.71875 L 4.75 -6.6875 C 4.75 -5.894531 4.90625 -5.175781 5.21875 -4.53125 C 5.53125 -3.894531 5.988281 -3.382812 6.59375 -3 C 7.207031 -2.625 7.957031 -2.4375 8.84375 -2.4375 C 9.695312 -2.4375 10.425781 -2.625 11.03125 -3 C 11.644531 -3.375 12.113281 -3.882812 12.4375 -4.53125 C 12.757812 -5.175781 12.921875 -5.890625 12.921875 -6.671875 L 12.921875 -16.71875 L 15.984375 -16.71875 L 15.984375 -6.46875 C 15.984375 -5.46875 15.8125 -4.550781 15.46875 -3.71875 C 15.125 -2.882812 14.632812 -2.160156 14 -1.546875 C 13.363281 -0.941406 12.609375 -0.46875 11.734375 -0.125 C 10.859375 0.207031 9.894531 0.375 8.84375 0.375 Z M 8.84375 0.375 "/></g></g></g><g fill="#ffffff" fill-opacity="1"><g transform="translate(133.866298, 22.764696)"><g><path d="M 7.625 0.375 C 6.425781 0.375 5.394531 0.222656 4.53125 -0.078125 C 3.675781 -0.390625 2.972656 -0.804688 2.421875 -1.328125 C 1.878906 -1.847656 1.476562 -2.425781 1.21875 -3.0625 C 0.957031 -3.707031 0.828125 -4.359375 0.828125 -5.015625 L 3.890625 -5.015625 C 3.890625 -4.492188 4.035156 -4.019531 4.328125 -3.59375 C 4.617188 -3.175781 5.039062 -2.835938 5.59375 -2.578125 C 6.15625 -2.328125 6.832031 -2.203125 7.625 -2.203125 C 10.101562 -2.203125 11.34375 -3.03125 11.34375 -4.6875 C 11.34375 -5.207031 11.179688 -5.628906 10.859375 -5.953125 C 10.546875 -6.273438 10.101562 -6.535156 9.53125 -6.734375 C 8.957031 -6.941406 8.28125 -7.117188 7.5 -7.265625 C 6.9375 -7.378906 6.363281 -7.515625 5.78125 -7.671875 C 5.195312 -7.835938 4.632812 -8.046875 4.09375 -8.296875 C 3.5625 -8.546875 3.082031 -8.847656 2.65625 -9.203125 C 2.226562 -9.566406 1.890625 -10 1.640625 -10.5 C 1.390625 -11.007812 1.265625 -11.613281 1.265625 -12.3125 C 1.265625 -13.226562 1.484375 -14.046875 1.921875 -14.765625 C 2.359375 -15.484375 3.039062 -16.050781 3.96875 -16.46875 C 4.894531 -16.894531 6.078125 -17.109375 7.515625 -17.109375 C 8.910156 -17.109375 10.070312 -16.898438 11 -16.484375 C 11.9375 -16.066406 12.640625 -15.476562 13.109375 -14.71875 C 13.578125 -13.96875 13.8125 -13.09375 13.8125 -12.09375 L 10.75 -12.09375 C 10.75 -12.53125 10.632812 -12.921875 10.40625 -13.265625 C 10.175781 -13.617188 9.820312 -13.898438 9.34375 -14.109375 C 8.863281 -14.316406 8.242188 -14.421875 7.484375 -14.421875 C 6.847656 -14.421875 6.328125 -14.363281 5.921875 -14.25 C 5.515625 -14.132812 5.191406 -13.972656 4.953125 -13.765625 C 4.722656 -13.554688 4.5625 -13.328125 4.46875 -13.078125 C 4.375 -12.828125 4.328125 -12.566406 4.328125 -12.296875 C 4.328125 -11.609375 4.675781 -11.078125 5.375 -10.703125 C 6.070312 -10.335938 7.117188 -10.039062 8.515625 -9.8125 C 9.285156 -9.664062 10.023438 -9.472656 10.734375 -9.234375 C 11.441406 -8.992188 12.070312 -8.675781 12.625 -8.28125 C 13.1875 -7.894531 13.628906 -7.40625 13.953125 -6.8125 C 14.273438 -6.226562 14.4375 -5.519531 14.4375 -4.6875 C 14.4375 -3.601562 14.15625 -2.679688 13.59375 -1.921875 C 13.039062 -1.171875 12.253906 -0.597656 11.234375 -0.203125 C 10.210938 0.179688 9.007812 0.375 7.625 0.375 Z M 7.625 0.375 "/></g></g></g><g fill="#ffffff" fill-opacity="1"><g transform="translate(149.078024, 22.764696)"><g><path d="M 8.546875 0 L 5.5 0 L 5.5 -13.984375 L 0.53125 -13.984375 L 0.53125 -16.71875 L 13.53125 -16.71875 L 13.53125 -13.984375 L 8.546875 -13.984375 Z M 8.546875 0 "/></g></g></g><g fill="#ffffff" fill-opacity="1"><g transform="translate(60.459768, 47.311242)"><g><path d="M 12.546875 0 L 2.5 0 L 2.5 -16.71875 L 3.953125 -16.71875 L 3.953125 -1.34375 L 12.546875 -1.34375 Z M 12.546875 0 "/></g></g></g><g fill="#ffffff" fill-opacity="1"><g transform="translate(73.496635, 47.311242)"><g><path d="M 15.96875 0 L 14.421875 0 L 12.609375 -4.234375 L 3.546875 -4.234375 L 1.75 0 L 0.203125 0 L 7.359375 -16.71875 L 8.796875 -16.71875 Z M 8.03125 -14.703125 L 4.09375 -5.5 L 12.0625 -5.5 L 8.140625 -14.703125 L 8.09375 -14.890625 L 8.078125 -14.890625 Z M 8.03125 -14.703125 "/></g></g></g><g fill="#ffffff" fill-opacity="1"><g transform="translate(89.654487, 47.311242)"><g><path d="M 10.21875 0 L 2.5 0 L 2.5 -16.71875 L 9.53125 -16.71875 C 10.164062 -16.71875 10.753906 -16.609375 11.296875 -16.390625 C 11.847656 -16.179688 12.328125 -15.882812 12.734375 -15.5 C 13.140625 -15.113281 13.457031 -14.65625 13.6875 -14.125 C 13.914062 -13.601562 14.03125 -13.03125 14.03125 -12.40625 C 14.03125 -11.882812 13.929688 -11.382812 13.734375 -10.90625 C 13.535156 -10.4375 13.257812 -10.019531 12.90625 -9.65625 C 12.5625 -9.300781 12.164062 -9.023438 11.71875 -8.828125 C 12.34375 -8.660156 12.898438 -8.367188 13.390625 -7.953125 C 13.890625 -7.546875 14.285156 -7.050781 14.578125 -6.46875 C 14.867188 -5.894531 15.015625 -5.273438 15.015625 -4.609375 C 15.015625 -3.910156 14.882812 -3.28125 14.625 -2.71875 C 14.375 -2.15625 14.023438 -1.671875 13.578125 -1.265625 C 13.128906 -0.859375 12.617188 -0.546875 12.046875 -0.328125 C 11.472656 -0.109375 10.863281 0 10.21875 0 Z M 3.96875 -15.421875 L 3.96875 -9.25 L 9.46875 -9.25 C 10.039062 -9.25 10.554688 -9.382812 11.015625 -9.65625 C 11.484375 -9.925781 11.851562 -10.296875 12.125 -10.765625 C 12.40625 -11.242188 12.546875 -11.769531 12.546875 -12.34375 C 12.546875 -12.914062 12.40625 -13.429688 12.125 -13.890625 C 11.851562 -14.359375 11.484375 -14.726562 11.015625 -15 C 10.554688 -15.28125 10.039062 -15.421875 9.46875 -15.421875 Z M 3.96875 -8.046875 L 3.96875 -1.328125 L 10.125 -1.328125 C 10.757812 -1.328125 11.332031 -1.472656 11.84375 -1.765625 C 12.351562 -2.066406 12.757812 -2.472656 13.0625 -2.984375 C 13.363281 -3.503906 13.515625 -4.078125 13.515625 -4.703125 C 13.515625 -5.160156 13.425781 -5.59375 13.25 -6 C 13.082031 -6.40625 12.84375 -6.757812 12.53125 -7.0625 C 12.226562 -7.375 11.875 -7.613281 11.46875 -7.78125 C 11.0625 -7.957031 10.628906 -8.046875 10.171875 -8.046875 Z M 3.96875 -8.046875 "/></g></g></g><g fill="#ffffff" fill-opacity="1"><g transform="translate(105.812338, 47.311242)"><g><path d="M 7.34375 0.328125 C 6.28125 0.328125 5.347656 0.179688 4.546875 -0.109375 C 3.753906 -0.398438 3.09375 -0.785156 2.5625 -1.265625 C 2.03125 -1.742188 1.632812 -2.28125 1.375 -2.875 C 1.113281 -3.476562 0.984375 -4.085938 0.984375 -4.703125 L 2.453125 -4.703125 C 2.453125 -4.234375 2.5625 -3.769531 2.78125 -3.3125 C 3 -2.863281 3.316406 -2.460938 3.734375 -2.109375 C 4.160156 -1.753906 4.675781 -1.472656 5.28125 -1.265625 C 5.882812 -1.054688 6.570312 -0.953125 7.34375 -0.953125 C 8.914062 -0.953125 10.144531 -1.253906 11.03125 -1.859375 C 11.914062 -2.460938 12.359375 -3.363281 12.359375 -4.5625 C 12.359375 -5.144531 12.234375 -5.632812 11.984375 -6.03125 C 11.734375 -6.425781 11.382812 -6.753906 10.9375 -7.015625 C 10.5 -7.273438 9.988281 -7.484375 9.40625 -7.640625 C 8.832031 -7.796875 8.21875 -7.914062 7.5625 -8 C 7 -8.070312 6.425781 -8.171875 5.84375 -8.296875 C 5.269531 -8.429688 4.71875 -8.601562 4.1875 -8.8125 C 3.664062 -9.019531 3.195312 -9.285156 2.78125 -9.609375 C 2.363281 -9.941406 2.03125 -10.347656 1.78125 -10.828125 C 1.539062 -11.304688 1.421875 -11.875 1.421875 -12.53125 C 1.421875 -13.101562 1.523438 -13.660156 1.734375 -14.203125 C 1.941406 -14.742188 2.273438 -15.226562 2.734375 -15.65625 C 3.191406 -16.09375 3.796875 -16.4375 4.546875 -16.6875 C 5.296875 -16.945312 6.21875 -17.078125 7.3125 -17.078125 C 8.5625 -17.078125 9.613281 -16.878906 10.46875 -16.484375 C 11.332031 -16.085938 11.988281 -15.546875 12.4375 -14.859375 C 12.882812 -14.179688 13.109375 -13.40625 13.109375 -12.53125 L 11.65625 -12.53125 C 11.65625 -13.175781 11.476562 -13.738281 11.125 -14.21875 C 10.78125 -14.707031 10.28125 -15.082031 9.625 -15.34375 C 8.976562 -15.613281 8.203125 -15.75 7.296875 -15.75 C 6.441406 -15.75 5.726562 -15.660156 5.15625 -15.484375 C 4.59375 -15.304688 4.144531 -15.0625 3.8125 -14.75 C 3.476562 -14.445312 3.238281 -14.101562 3.09375 -13.71875 C 2.945312 -13.332031 2.875 -12.9375 2.875 -12.53125 C 2.875 -11.84375 3.078125 -11.28125 3.484375 -10.84375 C 3.898438 -10.414062 4.488281 -10.078125 5.25 -9.828125 C 6.007812 -9.578125 6.914062 -9.390625 7.96875 -9.265625 C 8.476562 -9.203125 9.003906 -9.109375 9.546875 -8.984375 C 10.085938 -8.859375 10.613281 -8.6875 11.125 -8.46875 C 11.632812 -8.257812 12.09375 -7.984375 12.5 -7.640625 C 12.90625 -7.296875 13.226562 -6.867188 13.46875 -6.359375 C 13.707031 -5.859375 13.828125 -5.257812 13.828125 -4.5625 C 13.828125 -3.550781 13.570312 -2.675781 13.0625 -1.9375 C 12.550781 -1.207031 11.8125 -0.644531 10.84375 -0.25 C 9.882812 0.132812 8.71875 0.328125 7.34375 0.328125 Z M 7.34375 0.328125 "/></g></g></g><g fill="#c8f443" fill-opacity="1"><g transform="translate(56.899913, 5.654638)"><g><path d="M -30.5 42.703125 L -37.15625 42.703125 L -21.96875 0 L -15.984375 0 L -0.734375 42.703125 L -7.5625 42.703125 L -19.03125 8.90625 Z M -30.5 42.703125 "/></g></g></g></svg>