<svg xmlns="http://www.w3.org/2000/svg" xmlns:xlink="http://www.w3.org/1999/xlink" width="45" zoomAndPan="magnify" viewBox="0 0 33.75 33.749998" height="45" preserveAspectRatio="xMidYMid meet" version="1.0"><defs><g/><clipPath id="124c1686df"><path d="M 0 0 L 33.5 0 L 33.5 33.5 L 0 33.5 Z M 0 0 " clip-rule="nonzero"/></clipPath><clipPath id="bcb1ae9e3c"><path d="M 1 5 L 18.964844 5 L 18.964844 26 L 1 26 Z M 1 5 " clip-rule="nonzero"/></clipPath><clipPath id="7def1e0858"><rect x="0" width="19" y="0" height="33"/></clipPath><clipPath id="148d379988"><rect x="0" width="14" y="0" height="8"/></clipPath></defs><g clip-path="url(#124c1686df)"><path fill="#000000" d="M 26.058594 33.5 L 7.445312 33.5 C 3.332031 33.5 0 30.167969 0 26.058594 L 0 7.445312 C 0 3.332031 3.332031 0 7.445312 0 L 26.058594 0 C 30.167969 0 33.5 3.332031 33.5 7.445312 L 33.5 26.058594 C 33.5 30.167969 30.167969 33.5 26.058594 33.5 Z M 26.058594 33.5 " fill-opacity="1" fill-rule="nonzero"/></g><g transform="matrix(1, 0, 0, 1, 2, -0.000000000000001048)"><g clip-path="url(#7def1e0858)"><g clip-path="url(#bcb1ae9e3c)"><g fill="#c8f443" fill-opacity="1"><g transform="translate(18.838748, 5.652814)"><g><path d="M -14.328125 20.0625 L -17.453125 20.0625 L -10.3125 0 L -7.515625 0 L -0.34375 20.0625 L -3.546875 20.0625 L -8.9375 4.1875 Z M -14.328125 20.0625 "/></g></g></g></g></g></g><g transform="matrix(1, 0, 0, 1, 17, 5)"><g clip-path="url(#148d379988)"><g fill="#ffffff" fill-opacity="1"><g transform="translate(0.970177, 5.763415)"><g><path d="M 0.5 0 L 0.5 -3.90625 L 1.078125 -3.90625 L 1.078125 -0.515625 L 3 -0.515625 L 2.90625 0 Z M 0.5 0 "/></g></g></g><g fill="#ffffff" fill-opacity="1"><g transform="translate(4.06046, 5.763415)"><g><path d="M 1.140625 0.046875 C 0.828125 0.046875 0.59375 -0.03125 0.4375 -0.1875 C 0.28125 -0.34375 0.203125 -0.550781 0.203125 -0.8125 C 0.203125 -1.070312 0.285156 -1.273438 0.453125 -1.421875 C 0.617188 -1.566406 0.863281 -1.640625 1.1875 -1.640625 L 2.015625 -1.640625 L 2.015625 -1.796875 C 2.015625 -2.003906 1.960938 -2.15625 1.859375 -2.25 C 1.753906 -2.351562 1.570312 -2.40625 1.3125 -2.40625 C 1.144531 -2.40625 0.976562 -2.390625 0.8125 -2.359375 C 0.644531 -2.335938 0.515625 -2.3125 0.421875 -2.28125 L 0.5 -2.765625 C 0.59375 -2.785156 0.71875 -2.804688 0.875 -2.828125 C 1.039062 -2.847656 1.21875 -2.859375 1.40625 -2.859375 C 1.8125 -2.859375 2.101562 -2.765625 2.28125 -2.578125 C 2.457031 -2.398438 2.546875 -2.140625 2.546875 -1.796875 L 2.546875 0 L 2.09375 0 L 2.015625 -0.390625 C 1.941406 -0.242188 1.835938 -0.132812 1.703125 -0.0625 C 1.566406 0.0078125 1.378906 0.046875 1.140625 0.046875 Z M 1.265625 -0.375 C 1.503906 -0.375 1.6875 -0.425781 1.8125 -0.53125 C 1.945312 -0.632812 2.015625 -0.8125 2.015625 -1.0625 L 2.015625 -1.265625 L 1.28125 -1.265625 C 1.09375 -1.265625 0.953125 -1.222656 0.859375 -1.140625 C 0.773438 -1.066406 0.734375 -0.960938 0.734375 -0.828125 C 0.734375 -0.679688 0.773438 -0.566406 0.859375 -0.484375 C 0.941406 -0.410156 1.078125 -0.375 1.265625 -0.375 Z M 1.265625 -0.375 "/></g></g></g><g fill="#ffffff" fill-opacity="1"><g transform="translate(6.994554, 5.763415)"><g><path d="M 1.796875 -2.875 C 2.171875 -2.875 2.445312 -2.757812 2.625 -2.53125 C 2.800781 -2.300781 2.890625 -1.929688 2.890625 -1.421875 C 2.890625 -0.898438 2.800781 -0.523438 2.625 -0.296875 C 2.445312 -0.0664062 2.171875 0.046875 1.796875 0.046875 C 1.609375 0.046875 1.457031 0.0195312 1.34375 -0.03125 C 1.226562 -0.0820312 1.140625 -0.140625 1.078125 -0.203125 C 1.015625 -0.273438 0.972656 -0.332031 0.953125 -0.375 L 0.875 0 L 0.421875 0 L 0.421875 -3.875 L 0.953125 -3.953125 L 0.953125 -2.453125 C 0.972656 -2.492188 1.015625 -2.546875 1.078125 -2.609375 C 1.140625 -2.679688 1.226562 -2.742188 1.34375 -2.796875 C 1.457031 -2.847656 1.609375 -2.875 1.796875 -2.875 Z M 1.640625 -0.421875 C 1.890625 -0.421875 2.066406 -0.492188 2.171875 -0.640625 C 2.285156 -0.796875 2.34375 -1.054688 2.34375 -1.421875 C 2.34375 -1.773438 2.285156 -2.023438 2.171875 -2.171875 C 2.066406 -2.328125 1.890625 -2.40625 1.640625 -2.40625 C 1.398438 -2.40625 1.222656 -2.328125 1.109375 -2.171875 C 1.003906 -2.023438 0.953125 -1.773438 0.953125 -1.421875 C 0.953125 -1.054688 1.003906 -0.796875 1.109375 -0.640625 C 1.222656 -0.492188 1.398438 -0.421875 1.640625 -0.421875 Z M 1.640625 -0.421875 "/></g></g></g><g fill="#ffffff" fill-opacity="1"><g transform="translate(10.13504, 5.763415)"><g><path d="M 1.28125 0.0625 C 1.082031 0.0625 0.894531 0.0390625 0.71875 0 C 0.550781 -0.03125 0.421875 -0.0625 0.328125 -0.09375 L 0.25 -0.59375 C 0.34375 -0.550781 0.476562 -0.507812 0.65625 -0.46875 C 0.84375 -0.425781 1.035156 -0.40625 1.234375 -0.40625 C 1.484375 -0.40625 1.65625 -0.4375 1.75 -0.5 C 1.851562 -0.570312 1.90625 -0.664062 1.90625 -0.78125 C 1.90625 -0.882812 1.875 -0.960938 1.8125 -1.015625 C 1.757812 -1.078125 1.648438 -1.125 1.484375 -1.15625 L 1 -1.25 C 0.726562 -1.300781 0.535156 -1.390625 0.421875 -1.515625 C 0.304688 -1.648438 0.25 -1.828125 0.25 -2.046875 C 0.25 -2.304688 0.335938 -2.507812 0.515625 -2.65625 C 0.703125 -2.800781 0.992188 -2.875 1.390625 -2.875 C 1.578125 -2.875 1.75 -2.859375 1.90625 -2.828125 C 2.0625 -2.796875 2.175781 -2.769531 2.25 -2.75 L 2.28125 -2.265625 C 2.21875 -2.296875 2.109375 -2.328125 1.953125 -2.359375 C 1.804688 -2.398438 1.640625 -2.421875 1.453125 -2.421875 C 1.203125 -2.421875 1.023438 -2.382812 0.921875 -2.3125 C 0.828125 -2.25 0.78125 -2.164062 0.78125 -2.0625 C 0.78125 -1.957031 0.804688 -1.878906 0.859375 -1.828125 C 0.921875 -1.773438 1.035156 -1.734375 1.203125 -1.703125 L 1.65625 -1.609375 C 1.9375 -1.546875 2.132812 -1.453125 2.25 -1.328125 C 2.375 -1.203125 2.4375 -1.019531 2.4375 -0.78125 C 2.4375 -0.519531 2.34375 -0.3125 2.15625 -0.15625 C 1.976562 -0.0078125 1.6875 0.0625 1.28125 0.0625 Z M 1.28125 0.0625 "/></g></g></g></g></g></svg>