<svg xmlns="http://www.w3.org/2000/svg" xmlns:xlink="http://www.w3.org/1999/xlink" width="45" zoomAndPan="magnify" viewBox="0 0 33.75 33.749998" height="45" preserveAspectRatio="xMidYMid meet" version="1.0"><defs><filter x="0%" y="0%" width="100%" height="100%" id="c727020439"><feColorMatrix values="0 0 0 0 1 0 0 0 0 1 0 0 0 0 1 0 0 0 1 0" color-interpolation-filters="sRGB"/></filter><mask id="c91952dc41"><g filter="url(#c727020439)"><rect x="-3.375" width="40.5" fill="#000000" y="-3.375" height="40.499998" fill-opacity="0.6"/></g></mask><clipPath id="697021624c"><path d="M 0.8125 6 L 30.589844 6 L 30.589844 30.628906 L 0.8125 30.628906 Z M 0.8125 6 " clip-rule="nonzero"/></clipPath><clipPath id="d0e1957925"><path d="M 10 0.847656 L 21 0.847656 L 21 19 L 10 19 Z M 10 0.847656 " clip-rule="nonzero"/></clipPath><clipPath id="6c80cf2064"><rect x="0" width="31" y="0" height="31"/></clipPath></defs><g mask="url(#c91952dc41)"><g transform="matrix(1, 0, 0, 1, 1, 1)"><g clip-path="url(#6c80cf2064)"><g clip-path="url(#697021624c)"><path fill="#c8f344" d="M 20.578125 19.761719 C 21.460938 18.089844 22.929688 17.421875 24.769531 17.832031 C 26.589844 18.242188 27.839844 20.230469 28.539062 21.808594 C 28.601562 22.367188 26.300781 23.089844 25.863281 23.210938 C 24.292969 23.648438 22.355469 23.160156 21.367188 21.808594 L 20.683594 20.863281 C 19.769531 21.230469 19.15625 21.828125 18.625 22.582031 C 17.96875 23.507812 17.988281 24.339844 18.089844 25.566406 C 18.1875 26.761719 18.519531 28.507812 18.960938 29.652344 L 23.65625 29.664062 C 23.945312 29.664062 24.070312 30.304688 23.863281 30.484375 C 23.773438 30.566406 23.492188 30.640625 23.324219 30.640625 L 8.058594 30.640625 C 7.660156 30.640625 7.367188 30.320312 7.484375 29.941406 C 7.527344 29.804688 7.855469 29.625 8.015625 29.625 L 11.9375 29.632812 C 12.136719 29.632812 12.398438 29.59375 12.621094 29.546875 C 13.0625 27.992188 13.679688 25.207031 13.402344 23.703125 C 13.175781 22.476562 11.992188 21.382812 10.8125 20.828125 L 10.375 21.480469 C 10.015625 22.019531 9.574219 22.511719 8.980469 22.816406 C 6.910156 23.871094 5.394531 23.246094 3.417969 22.335938 C 3.273438 22.269531 3.082031 21.988281 2.988281 21.792969 C 4.054688 19.617188 5.367188 17.5 8.15625 17.75 C 9.25 17.847656 10.160156 18.488281 10.71875 19.429688 C 10.832031 19.613281 11.027344 19.847656 11.203125 19.949219 C 12.0625 20.453125 12.601562 20.742188 13.328125 21.515625 L 13.40625 21.332031 C 13.171875 18.25 11.53125 16.277344 9.082031 14.609375 C 7.289062 16.695312 4.0625 16.675781 2.238281 14.820312 C 0.628906 13.1875 0.339844 10.667969 1.644531 8.738281 C 3.011719 6.722656 5.574219 6 7.808594 7.191406 C 10.113281 8.417969 11.019531 11.433594 9.734375 13.765625 L 10.5625 14.4375 C 11.132812 14.902344 11.652344 15.355469 12.167969 15.894531 C 12.257812 15.992188 12.394531 16.097656 12.511719 16.183594 C 13.003906 15.210938 12.9375 14.242188 12.496094 13.316406 C 11.988281 12.257812 11.207031 12.226562 11.421875 11.710938 C 11.847656 10.683594 14.144531 12.476562 13.851562 15.25 C 13.691406 16.773438 13.054688 16.953125 13.375 17.539062 C 13.898438 18.5 14.191406 19.480469 14.332031 20.554688 C 14.675781 23.183594 14.527344 26.921875 13.695312 29.488281 C 13.726562 29.523438 13.847656 29.625 13.910156 29.660156 L 17.65625 29.648438 C 17.738281 29.648438 17.789062 29.445312 17.765625 29.375 C 16.984375 26.824219 16.933594 24.410156 17.0625 21.75 C 17.136719 20.191406 17.265625 18.894531 18.125 17.582031 C 18.535156 16.960938 17.960938 16.96875 17.65625 15.816406 C 16.941406 13.085938 19.375 10.816406 19.945312 11.542969 C 20.320312 12.019531 19.65625 12.304688 19.066406 13.203125 C 18.453125 14.136719 18.53125 15.285156 18.902344 16.230469 C 18.917969 16.261719 19.027344 16.191406 19.050781 16.167969 C 19.910156 15.273438 20.792969 14.523438 21.839844 13.773438 C 21.023438 12.3125 20.960938 10.636719 21.753906 9.175781 C 22.316406 8.132812 23.210938 7.289062 24.351562 6.878906 C 26.714844 6.03125 29.316406 7.230469 30.300781 9.554688 C 31.207031 11.6875 30.445312 14.191406 28.511719 15.441406 C 26.5 16.742188 23.972656 16.367188 22.375 14.59375 C 21.300781 15.40625 20.191406 16.265625 19.496094 17.285156 C 18.710938 18.4375 18.109375 19.878906 18.082031 21.339844 L 18.320312 21.40625 C 19.09375 20.484375 19.609375 20.285156 20.578125 19.761719 Z M 9.296875 11.429688 C 9.296875 9.375 7.628906 7.707031 5.574219 7.707031 C 3.519531 7.707031 1.851562 9.375 1.851562 11.429688 C 1.851562 13.488281 3.519531 15.152344 5.574219 15.152344 C 7.628906 15.152344 9.296875 13.488281 9.296875 11.429688 Z M 29.65625 11.425781 C 29.65625 9.371094 27.988281 7.707031 25.933594 7.707031 C 23.878906 7.707031 22.210938 9.371094 22.210938 11.425781 C 22.210938 13.480469 23.878906 15.148438 25.933594 15.148438 C 27.988281 15.148438 29.65625 13.480469 29.65625 11.425781 Z M 9.644531 20.628906 C 8.144531 20.566406 8.125 20.839844 7.03125 21.210938 C 6.886719 21.261719 6.574219 20.957031 6.542969 20.804688 C 6.515625 20.652344 6.617188 20.34375 6.757812 20.238281 C 7.617188 19.609375 8.535156 19.539062 9.597656 19.476562 C 8.496094 18.332031 6.765625 18.601562 5.722656 19.574219 C 5.304688 19.960938 4.300781 21.246094 4.363281 21.558594 C 4.402344 21.761719 5.949219 22.238281 6.378906 22.304688 C 7.539062 22.480469 9.335938 21.820312 9.644531 20.628906 Z M 21.820312 20.59375 C 22.050781 21.089844 22.289062 21.394531 22.691406 21.683594 C 24.238281 22.789062 25.679688 22.339844 27.269531 21.554688 C 26.609375 20.460938 25.855469 19.226562 24.691406 18.847656 C 23.886719 18.589844 22.535156 18.75 22 19.464844 C 22.675781 19.539062 25.496094 19.878906 24.941406 20.980469 C 24.847656 21.171875 24.476562 21.242188 24.273438 21.144531 C 23.460938 20.75 22.960938 20.589844 21.820312 20.59375 Z M 21.820312 20.59375 " fill-opacity="1" fill-rule="nonzero"/></g><g clip-path="url(#d0e1957925)"><path fill="#c8f344" d="M 16.074219 18.761719 L 15.246094 18.757812 L 15.234375 11.191406 C 15.234375 11.0625 15.175781 10.820312 15.101562 10.71875 C 13.300781 10.519531 11.691406 9.167969 11.109375 7.460938 C 10.609375 6.007812 10.824219 4.28125 11.71875 3.027344 C 12.304688 2.207031 13.085938 1.511719 14.0625 1.15625 C 16.597656 0.230469 19.308594 1.484375 20.3125 3.960938 C 20.859375 5.3125 20.765625 6.867188 20.082031 8.148438 C 19.34375 9.53125 18.058594 10.433594 16.523438 10.695312 C 16.40625 10.714844 16.246094 10.863281 16.246094 11.003906 L 16.25 18.378906 C 16.25 18.496094 16.136719 18.761719 16.074219 18.761719 Z M 19.628906 5.820312 C 19.628906 3.679688 17.894531 1.945312 15.753906 1.945312 C 13.613281 1.945312 11.878906 3.679688 11.878906 5.820312 C 11.878906 7.957031 13.613281 9.691406 15.753906 9.691406 C 17.894531 9.691406 19.628906 7.957031 19.628906 5.820312 Z M 19.628906 5.820312 " fill-opacity="1" fill-rule="nonzero"/></g><path fill="#c8f344" d="M 6.222656 13.664062 C 6.082031 13.722656 5.976562 14.027344 5.914062 14.1875 C 5.839844 14.390625 5.296875 14.472656 5.175781 14.316406 L 5.042969 13.6875 C 4.527344 13.582031 3.964844 13.152344 4.03125 12.578125 C 4.070312 12.246094 4.675781 12.375 4.847656 12.589844 C 5.15625 12.980469 5.71875 12.992188 6.078125 12.683594 C 6.160156 12.613281 6.242188 12.335938 6.207031 12.234375 C 6.019531 11.660156 4.25 12.070312 4.0625 10.714844 C 3.933594 9.769531 4.390625 9.449219 5.109375 9.027344 L 5.226562 8.496094 C 5.378906 8.449219 5.804688 8.480469 5.910156 8.605469 C 5.890625 9.546875 6.976562 9.035156 7.035156 10.292969 C 6.015625 10.753906 6.175781 9.621094 5.339844 9.945312 C 5.195312 10 5 10.144531 4.953125 10.261719 C 4.894531 10.394531 5.003906 10.757812 5.140625 10.808594 C 6.191406 11.214844 7.109375 11.078125 7.128906 12.367188 C 7.136719 12.988281 6.777344 13.429688 6.222656 13.664062 Z M 6.222656 13.664062 " fill-opacity="1" fill-rule="nonzero"/><path fill="#c8f344" d="M 25.574219 14.292969 L 25.371094 13.699219 C 24.90625 13.558594 24.496094 13.21875 24.363281 12.777344 C 24.320312 12.640625 24.492188 12.273438 24.617188 12.300781 C 24.832031 12.34375 25.121094 12.503906 25.261719 12.636719 C 25.613281 12.972656 26.175781 12.972656 26.441406 12.601562 C 26.507812 12.503906 26.566406 12.230469 26.507812 12.148438 C 26.28125 11.816406 24.839844 11.871094 24.542969 11.191406 C 24.277344 10.585938 24.285156 9.527344 25.21875 9.210938 C 25.675781 9.058594 25.277344 8.429688 25.792969 8.445312 C 25.957031 8.453125 26.226562 8.445312 26.253906 8.542969 L 26.414062 9.105469 C 26.453125 9.253906 26.816406 9.402344 26.972656 9.460938 C 27.285156 9.574219 27.535156 9.929688 27.320312 10.246094 C 27.15625 10.484375 26.707031 10.394531 26.496094 10.199219 C 26.269531 9.992188 25.925781 9.878906 25.597656 9.96875 C 25.433594 10.015625 25.28125 10.375 25.320312 10.527344 C 25.511719 11.3125 27.4375 10.699219 27.460938 12.378906 C 27.46875 12.953125 27.097656 13.445312 26.601562 13.621094 C 26.222656 13.753906 26.484375 14.105469 26.082031 14.355469 C 25.980469 14.417969 25.609375 14.402344 25.574219 14.292969 Z M 25.574219 14.292969 " fill-opacity="1" fill-rule="nonzero"/><path fill="#c8f344" d="M 16.15625 8.695312 C 16.121094 8.855469 15.707031 9.023438 15.550781 8.9375 C 15.265625 8.785156 15.597656 8.316406 15.152344 8.230469 C 14.53125 8.105469 14.226562 7.617188 14.125 7.011719 C 14.269531 6.917969 14.589844 6.792969 14.75 6.789062 C 14.816406 6.785156 14.972656 6.957031 15.011719 7.011719 C 15.304688 7.390625 15.933594 7.507812 16.285156 7.117188 C 16.347656 7.050781 16.429688 6.859375 16.441406 6.773438 C 16.519531 6.011719 14.015625 6.660156 14.148438 4.636719 C 14.1875 4.003906 14.691406 3.476562 15.269531 3.339844 C 15.363281 3.320312 15.375 3.035156 15.367188 2.921875 C 15.355469 2.691406 16.023438 2.613281 16.144531 2.839844 C 16.328125 3.1875 16.015625 3.273438 16.386719 3.46875 L 16.921875 3.75 C 17.132812 3.859375 17.242188 4.246094 17.234375 4.511719 C 16.996094 4.746094 16.625 4.777344 16.402344 4.519531 C 16.09375 4.171875 15.519531 4.132812 15.210938 4.457031 C 15.128906 4.539062 15.058594 4.773438 15.082031 4.867188 C 15.171875 5.238281 15.835938 5.363281 16.203125 5.4375 C 16.910156 5.578125 17.378906 6.09375 17.351562 6.824219 C 17.328125 7.429688 17.035156 7.925781 16.445312 8.175781 C 16.328125 8.226562 16.207031 8.441406 16.15625 8.695312 Z M 16.15625 8.695312 " fill-opacity="1" fill-rule="nonzero"/></g></g></g></svg>