<svg xmlns="http://www.w3.org/2000/svg" xmlns:xlink="http://www.w3.org/1999/xlink" width="45" zoomAndPan="magnify" viewBox="0 0 33.75 33.749998" height="45" preserveAspectRatio="xMidYMid meet" version="1.0"><defs><filter x="0%" y="0%" width="100%" height="100%" id="d0fcb07b28"><feColorMatrix values="0 0 0 0 1 0 0 0 0 1 0 0 0 0 1 0 0 0 1 0" color-interpolation-filters="sRGB"/></filter><mask id="53a7c5d10e"><g filter="url(#d0fcb07b28)"><rect x="-3.375" width="40.5" fill="#000000" y="-3.375" height="40.499998" fill-opacity="0.6"/></g></mask><clipPath id="19b7659a72"><path d="M 0.621094 1.386719 L 29.097656 1.386719 L 29.097656 30.207031 L 0.621094 30.207031 Z M 0.621094 1.386719 " clip-rule="nonzero"/></clipPath><clipPath id="0d4d510de0"><rect x="0" width="31" y="0" height="31"/></clipPath></defs><g mask="url(#53a7c5d10e)"><g transform="matrix(1, 0, 0, 1, 2, 1)"><g clip-path="url(#0d4d510de0)"><g clip-path="url(#19b7659a72)"><path fill="#c8f344" d="M 28.5 22.9375 L 24.816406 19.253906 C 24.582031 19.019531 24.3125 18.835938 24.003906 18.710938 C 23.695312 18.582031 23.378906 18.519531 23.046875 18.519531 C 22.714844 18.519531 22.394531 18.582031 22.085938 18.710938 C 21.78125 18.835938 21.507812 19.019531 21.277344 19.253906 L 21.132812 19.398438 C 20.871094 19.660156 20.566406 19.863281 20.226562 20.003906 C 19.882812 20.144531 19.527344 20.214844 19.15625 20.214844 C 18.785156 20.214844 18.429688 20.144531 18.085938 20.003906 C 17.742188 19.863281 17.441406 19.660156 17.179688 19.398438 L 11.410156 13.628906 C 11.148438 13.367188 10.945312 13.0625 10.804688 12.722656 C 10.664062 12.378906 10.59375 12.023438 10.59375 11.652344 C 10.59375 11.28125 10.664062 10.925781 10.804688 10.582031 C 10.945312 10.242188 11.148438 9.9375 11.410156 9.675781 L 11.554688 9.53125 C 11.789062 9.296875 11.972656 9.027344 12.097656 8.722656 C 12.226562 8.414062 12.289062 8.09375 12.289062 7.761719 C 12.289062 7.429688 12.226562 7.109375 12.097656 6.804688 C 11.972656 6.496094 11.789062 6.226562 11.554688 5.992188 L 7.871094 2.308594 C 7.578125 2.011719 7.238281 1.78125 6.851562 1.617188 C 6.464844 1.457031 6.0625 1.375 5.644531 1.375 C 5.226562 1.375 4.824219 1.457031 4.4375 1.617188 C 4.050781 1.78125 3.710938 2.011719 3.417969 2.308594 L 2.636719 3.082031 C 0.078125 5.628906 0.078125 9.339844 2.574219 12.53125 L 4.0625 14.496094 C 7.648438 19.078125 11.730469 23.160156 16.3125 26.746094 L 18.277344 28.234375 C 19.695312 29.421875 21.328125 30.046875 23.179688 30.105469 C 24.035156 30.105469 24.859375 29.933594 25.648438 29.597656 C 26.4375 29.261719 27.128906 28.785156 27.726562 28.171875 L 28.503906 27.390625 C 28.804688 27.097656 29.03125 26.757812 29.195312 26.371094 C 29.355469 25.984375 29.4375 25.582031 29.433594 25.164062 C 29.433594 24.746094 29.351562 24.34375 29.191406 23.957031 C 29.027344 23.570312 28.796875 23.230469 28.5 22.9375 Z M 26.730469 25.621094 L 25.953125 26.402344 C 23.511719 28.84375 20.632812 26.933594 19.808594 26.292969 L 17.871094 24.78125 C 13.433594 21.308594 9.480469 17.355469 6.007812 12.917969 L 4.5 10.980469 C 3.875 10.15625 1.945312 7.277344 4.386719 4.835938 L 5.183594 4.070312 C 5.308594 3.9375 5.460938 3.867188 5.644531 3.867188 C 5.828125 3.867188 5.980469 3.9375 6.101562 4.070312 L 9.785156 7.765625 L 9.644531 7.910156 C 9.398438 8.15625 9.179688 8.421875 8.984375 8.710938 C 8.792969 9.003906 8.628906 9.308594 8.496094 9.628906 C 8.363281 9.949219 8.261719 10.28125 8.195312 10.621094 C 8.125 10.964844 8.09375 11.308594 8.09375 11.65625 C 8.09375 12.003906 8.125 12.347656 8.195312 12.6875 C 8.261719 13.03125 8.363281 13.363281 8.496094 13.683594 C 8.628906 14.003906 8.792969 14.308594 8.984375 14.597656 C 9.179688 14.886719 9.398438 15.15625 9.644531 15.402344 L 15.414062 21.171875 C 15.660156 21.417969 15.925781 21.636719 16.214844 21.828125 C 16.503906 22.023438 16.808594 22.1875 17.132812 22.320312 C 17.453125 22.453125 17.785156 22.550781 18.125 22.621094 C 18.464844 22.6875 18.8125 22.722656 19.160156 22.722656 C 19.507812 22.722656 19.851562 22.6875 20.191406 22.621094 C 20.535156 22.550781 20.863281 22.453125 21.1875 22.320312 C 21.507812 22.1875 21.8125 22.023438 22.101562 21.828125 C 22.390625 21.636719 22.660156 21.417969 22.90625 21.171875 L 23.0625 21.027344 L 26.746094 24.710938 C 26.875 24.835938 26.941406 24.988281 26.9375 25.167969 C 26.9375 25.347656 26.871094 25.5 26.738281 25.621094 Z M 26.730469 25.621094 " fill-opacity="1" fill-rule="nonzero"/></g><path fill="#c8f344" d="M 16.367188 13.597656 C 16.386719 13.683594 16.417969 13.765625 16.46875 13.839844 C 16.46875 13.871094 16.5 13.902344 16.519531 13.933594 C 16.609375 14.070312 16.722656 14.1875 16.859375 14.277344 L 16.9375 14.339844 L 17.054688 14.402344 L 17.179688 14.441406 L 17.316406 14.496094 C 17.398438 14.503906 17.480469 14.503906 17.558594 14.496094 L 21.929688 14.496094 C 22.097656 14.496094 22.257812 14.464844 22.410156 14.402344 C 22.5625 14.339844 22.695312 14.25 22.8125 14.132812 C 22.929688 14.015625 23.019531 13.878906 23.085938 13.726562 C 23.148438 13.574219 23.179688 13.414062 23.179688 13.246094 C 23.179688 13.082031 23.148438 12.921875 23.085938 12.769531 C 23.019531 12.617188 22.929688 12.480469 22.8125 12.363281 C 22.695312 12.246094 22.5625 12.15625 22.410156 12.09375 C 22.257812 12.03125 22.097656 12 21.929688 12 L 20.574219 12 L 25.9375 6.636719 C 26.054688 6.519531 26.148438 6.382812 26.210938 6.230469 C 26.273438 6.078125 26.304688 5.917969 26.304688 5.753906 C 26.304688 5.585938 26.273438 5.425781 26.210938 5.273438 C 26.148438 5.121094 26.054688 4.984375 25.9375 4.867188 C 25.820312 4.75 25.6875 4.660156 25.535156 4.597656 C 25.382812 4.535156 25.222656 4.503906 25.054688 4.503906 C 24.890625 4.503906 24.730469 4.535156 24.578125 4.597656 C 24.425781 4.660156 24.289062 4.75 24.171875 4.867188 L 18.808594 10.230469 L 18.808594 8.878906 C 18.808594 8.710938 18.777344 8.550781 18.714844 8.398438 C 18.652344 8.246094 18.558594 8.113281 18.445312 7.996094 C 18.328125 7.878906 18.191406 7.789062 18.039062 7.722656 C 17.886719 7.660156 17.726562 7.628906 17.558594 7.628906 C 17.394531 7.628906 17.234375 7.660156 17.082031 7.722656 C 16.929688 7.789062 16.792969 7.878906 16.675781 7.996094 C 16.558594 8.113281 16.46875 8.246094 16.40625 8.398438 C 16.34375 8.550781 16.3125 8.710938 16.3125 8.878906 L 16.3125 13.246094 C 16.304688 13.328125 16.304688 13.410156 16.3125 13.492188 C 16.34375 13.527344 16.355469 13.566406 16.367188 13.597656 Z M 16.367188 13.597656 " fill-opacity="1" fill-rule="nonzero"/></g></g></g></svg>