<svg xmlns="http://www.w3.org/2000/svg" xmlns:xlink="http://www.w3.org/1999/xlink" width="45" zoomAndPan="magnify" viewBox="0 0 33.75 33.749998" height="45" preserveAspectRatio="xMidYMid meet" version="1.0"><defs><filter x="0%" y="0%" width="100%" height="100%" id="1f3eebaada"><feColorMatrix values="0 0 0 0 1 0 0 0 0 1 0 0 0 0 1 0 0 0 1 0" color-interpolation-filters="sRGB"/></filter><mask id="ed17a01f83"><g filter="url(#1f3eebaada)"><rect x="-3.375" width="40.5" fill="#000000" y="-3.375" height="40.499998" fill-opacity="0.6"/></g></mask><clipPath id="77933ea3cc"><path d="M 3 1.023438 L 32.714844 1.023438 L 32.714844 30.683594 L 3 30.683594 Z M 3 1.023438 " clip-rule="nonzero"/></clipPath><clipPath id="6753e2d015"><path d="M 0.699219 13 L 20 13 L 20 19 L 0.699219 19 Z M 0.699219 13 " clip-rule="nonzero"/></clipPath><clipPath id="f6738eddd5"><rect x="0" width="33" y="0" height="31"/></clipPath></defs><g mask="url(#ed17a01f83)"><g transform="matrix(1, 0, 0, 1, 0.000000000000000056, 1)"><g clip-path="url(#f6738eddd5)"><path fill="#c8f344" d="M 18.082031 19.9375 C 16.347656 19.9375 14.769531 18.847656 14.160156 17.222656 C 14.054688 16.949219 13.746094 16.808594 13.46875 16.914062 C 13.191406 17.015625 13.054688 17.324219 13.15625 17.601562 C 13.925781 19.640625 15.90625 21.007812 18.082031 21.007812 C 20.984375 21.007812 23.34375 18.648438 23.34375 15.746094 C 23.34375 12.84375 20.984375 10.484375 18.082031 10.484375 C 15.886719 10.484375 13.902344 11.871094 13.144531 13.929688 C 13.039062 14.207031 13.183594 14.515625 13.460938 14.617188 C 13.738281 14.71875 14.042969 14.578125 14.148438 14.300781 C 14.75 12.65625 16.332031 11.554688 18.082031 11.554688 C 20.394531 11.554688 22.273438 13.433594 22.273438 15.746094 C 22.273438 18.058594 20.394531 19.9375 18.082031 19.9375 Z M 18.082031 19.9375 " fill-opacity="1" fill-rule="nonzero"/><path fill="#c8f344" d="M 9.421875 17.878906 C 9.351562 17.589844 9.0625 17.414062 8.773438 17.484375 C 8.488281 17.554688 8.3125 17.84375 8.382812 18.132812 C 9.480469 22.609375 13.46875 25.734375 18.082031 25.734375 C 23.589844 25.734375 28.070312 21.253906 28.070312 15.746094 C 28.070312 10.238281 23.589844 5.757812 18.082031 5.757812 C 13.414062 5.757812 9.308594 9.066406 8.320312 13.621094 C 8.257812 13.910156 8.441406 14.195312 8.730469 14.253906 C 9.023438 14.320312 9.304688 14.136719 9.367188 13.847656 C 10.25 9.78125 13.914062 6.828125 18.082031 6.828125 C 23 6.828125 27 10.828125 27 15.746094 C 27 20.664062 23 24.664062 18.082031 24.664062 C 13.960938 24.664062 10.402344 21.875 9.421875 17.878906 Z M 9.421875 17.878906 " fill-opacity="1" fill-rule="nonzero"/><g clip-path="url(#77933ea3cc)"><path fill="#c8f344" d="M 18.082031 1.03125 C 11.421875 1.03125 5.574219 5.523438 3.863281 11.953125 C 3.785156 12.238281 3.957031 12.53125 4.242188 12.605469 C 4.523438 12.683594 4.820312 12.511719 4.894531 12.226562 C 6.480469 6.265625 11.90625 2.101562 18.082031 2.101562 C 25.605469 2.101562 31.726562 8.222656 31.726562 15.746094 C 31.726562 23.269531 25.605469 29.390625 18.082031 29.390625 C 12.015625 29.390625 6.621094 25.320312 4.957031 19.492188 C 4.878906 19.207031 4.582031 19.042969 4.296875 19.125 C 4.011719 19.207031 3.847656 19.5 3.929688 19.785156 C 5.71875 26.070312 11.539062 30.460938 18.082031 30.460938 C 26.195312 30.460938 32.796875 23.859375 32.796875 15.746094 C 32.796875 7.632812 26.195312 1.03125 18.082031 1.03125 Z M 18.082031 1.03125 " fill-opacity="1" fill-rule="nonzero"/></g><g clip-path="url(#6753e2d015)"><path fill="#c8f344" d="M 1.046875 18.429688 C 1.105469 18.453125 1.167969 18.464844 1.234375 18.464844 L 6.527344 18.464844 C 6.5625 18.464844 6.597656 18.460938 6.632812 18.453125 C 6.652344 18.449219 6.671875 18.441406 6.691406 18.4375 C 6.703125 18.433594 6.71875 18.429688 6.734375 18.421875 C 6.765625 18.410156 6.796875 18.394531 6.824219 18.375 C 6.832031 18.371094 6.835938 18.363281 6.839844 18.363281 C 6.863281 18.34375 6.886719 18.324219 6.90625 18.304688 C 6.910156 18.304688 6.910156 18.300781 6.910156 18.300781 L 8.855469 16.28125 L 17.175781 16.28125 C 17.359375 16.589844 17.695312 16.800781 18.082031 16.800781 C 18.664062 16.800781 19.136719 16.328125 19.136719 15.746094 C 19.136719 15.164062 18.664062 14.691406 18.082031 14.691406 C 17.695312 14.691406 17.359375 14.902344 17.175781 15.210938 L 8.855469 15.210938 L 6.910156 13.191406 C 6.910156 13.191406 6.910156 13.191406 6.910156 13.1875 C 6.859375 13.140625 6.800781 13.097656 6.738281 13.070312 C 6.738281 13.070312 6.738281 13.070312 6.734375 13.070312 C 6.675781 13.042969 6.609375 13.03125 6.542969 13.027344 C 6.539062 13.027344 6.535156 13.027344 6.535156 13.027344 C 6.53125 13.027344 6.527344 13.027344 6.527344 13.027344 L 1.234375 13.027344 C 1.171875 13.027344 1.109375 13.039062 1.054688 13.0625 C 1.050781 13.0625 1.042969 13.0625 1.039062 13.066406 C 0.976562 13.089844 0.921875 13.125 0.871094 13.171875 C 0.871094 13.175781 0.867188 13.175781 0.863281 13.175781 C 0.863281 13.175781 0.863281 13.179688 0.863281 13.179688 C 0.8125 13.226562 0.773438 13.285156 0.746094 13.347656 C 0.746094 13.351562 0.746094 13.351562 0.742188 13.351562 C 0.71875 13.410156 0.707031 13.476562 0.703125 13.542969 C 0.703125 13.546875 0.703125 13.550781 0.703125 13.554688 C 0.703125 13.558594 0.699219 13.558594 0.699219 13.5625 C 0.699219 13.625 0.714844 13.6875 0.734375 13.742188 C 0.738281 13.75 0.738281 13.753906 0.738281 13.757812 C 0.765625 13.820312 0.800781 13.878906 0.847656 13.925781 C 0.847656 13.929688 0.847656 13.929688 0.851562 13.933594 L 2.597656 15.746094 L 0.851562 17.558594 C 0.847656 17.5625 0.847656 17.5625 0.847656 17.566406 C 0.800781 17.613281 0.765625 17.671875 0.738281 17.734375 C 0.738281 17.738281 0.738281 17.746094 0.734375 17.75 C 0.714844 17.804688 0.699219 17.867188 0.699219 17.929688 C 0.699219 17.933594 0.703125 17.933594 0.703125 17.9375 C 0.703125 17.941406 0.703125 17.945312 0.703125 17.949219 C 0.707031 18.015625 0.71875 18.082031 0.742188 18.140625 C 0.746094 18.140625 0.746094 18.140625 0.746094 18.144531 C 0.773438 18.207031 0.8125 18.265625 0.863281 18.3125 C 0.863281 18.3125 0.863281 18.316406 0.863281 18.316406 C 0.867188 18.316406 0.871094 18.316406 0.871094 18.320312 C 0.917969 18.363281 0.972656 18.402344 1.035156 18.425781 C 1.039062 18.425781 1.042969 18.429688 1.046875 18.429688 Z M 3.722656 16.117188 C 3.746094 16.09375 3.757812 16.066406 3.773438 16.039062 C 3.792969 16.007812 3.820312 15.980469 3.832031 15.945312 C 3.847656 15.914062 3.847656 15.882812 3.855469 15.847656 C 3.859375 15.8125 3.871094 15.78125 3.871094 15.746094 C 3.871094 15.710938 3.859375 15.679688 3.855469 15.644531 C 3.847656 15.609375 3.847656 15.578125 3.832031 15.546875 C 3.820312 15.511719 3.792969 15.484375 3.773438 15.449219 C 3.757812 15.425781 3.746094 15.398438 3.722656 15.375 L 2.492188 14.097656 L 6.296875 14.097656 L 7.886719 15.746094 L 6.296875 17.394531 L 2.492188 17.394531 Z M 3.722656 16.117188 " fill-opacity="1" fill-rule="nonzero"/></g></g></g></g></svg>